<svg width="65" height="65" viewBox="0 0 65 65" fill="none" xmlns="http://www.w3.org/2000/svg">
<path d="M55.9628 34.7956C55.4803 33.45 55.4549 31.6473 55.9247 30.3016C58.6418 22.5451 61.5747 14.852 64.4568 7.13347C65.2567 5.00073 65.3456 3.03302 63.5299 1.3573C61.7905 -0.432679 59.7972 -0.191476 57.7022 0.595607C49.9954 3.49004 42.2886 6.39717 34.531 9.15196C33.3248 9.58358 31.7124 9.58358 30.5062 9.16465C22.8375 6.44795 15.2195 3.56621 7.6016 0.684471C5.34161 -0.166086 3.1705 -0.496153 1.3041 1.44616C-0.473418 3.28692 -0.1687 5.36888 0.656576 7.5524C3.526 15.1693 6.40812 22.7863 9.13788 30.454C9.56956 31.66 9.60765 33.2722 9.17597 34.4782C6.4716 42.0698 3.62757 49.6105 0.783542 57.164C-0.092521 59.4745 -0.61308 61.658 1.45646 63.6765C3.44982 65.6061 5.55745 65.0856 7.76665 64.2477C15.3211 61.4168 22.8629 58.5477 30.4681 55.8564C31.6743 55.4248 33.2867 55.4248 34.4929 55.8564C42.1489 58.5731 49.7669 61.4549 57.3848 64.3239C59.6448 65.1745 61.8159 65.5045 63.6823 63.5749C65.4725 61.7342 65.1551 59.6522 64.3298 57.4687C61.4985 49.9279 58.6418 42.3999 55.9628 34.7956Z" fill="url(#paint0_linear_1_358)"/>
<defs>
<linearGradient id="paint0_linear_1_358" x1="32.5002" y1="-0.451721" x2="32.5002" y2="63.8593" gradientUnits="userSpaceOnUse">
<stop stop-color="#43BCFF"/>
<stop offset="1" stop-color="#0149ED"/>
</linearGradient>
</defs>
</svg>
