<svg width="84" height="84" viewBox="0 0 84 84" fill="none" xmlns="http://www.w3.org/2000/svg">
<path d="M17.3789 26.0685L40.9424 1.11471C41.2162 0.822226 41.5989 0.65625 41.9996 0.65625C42.4003 0.65625 42.783 0.822226 43.0568 1.11471L66.6203 26.0685L41.9996 28.2409L17.3789 26.0685Z" fill="#2980BA"/>
<path d="M72.7324 66.6203C73.4141 66.6402 74.0173 66.1818 74.1807 65.5196L84 26.0686H0L9.86276 65.5196C10.0261 66.1818 10.6293 66.6402 11.311 66.6203H72.7324Z" fill="#285680"/>
<path d="M0 26.0686L40.8269 82.3776C41.0993 82.7538 41.5355 82.9765 42 82.9765C42.4645 82.9765 42.9007 82.7538 43.1731 82.3776L84 26.0686H0Z" fill="#3B97D3"/>
</svg>
