<svg width="83" height="83" viewBox="0 0 83 83" fill="none" xmlns="http://www.w3.org/2000/svg">
<path d="M36.3125 7.78125H15.5625C11.2742 7.78125 7.78125 11.2707 7.78125 15.5625V36.3125C7.78125 40.6043 11.2742 44.0938 15.5625 44.0938H24.7617C25.4153 44.0938 26.0482 43.8447 26.5289 43.3986L43.2672 27.8361C43.7929 27.345 44.0938 26.6568 44.0938 25.9375V15.5625C44.0938 11.2707 40.6008 7.78125 36.3125 7.78125Z" fill="#BAD7FF"/>
<path d="M59.8431 37.6682L54.0054 27.3105C52.6497 24.862 50.0456 23.3438 47.2063 23.3438H35.7903C32.9511 23.3438 30.3469 24.862 29.0016 27.2932L23.1571 37.6682C22.5034 38.8336 22.168 40.1201 22.168 41.5C22.168 42.8799 22.5034 44.1664 23.1571 45.3318L28.9947 55.6895C30.3504 58.1346 32.9545 59.6528 35.7938 59.6528H41.5001C42.1537 59.6528 42.7831 59.4072 43.2638 58.9611L60.0021 43.4332C60.5071 42.9663 60.8045 42.3162 60.8287 41.6314C60.884 40.2723 60.5382 38.9028 59.8431 37.6682Z" fill="#8CBDFF"/>
<path d="M57.0625 75.2188C67.0899 75.2188 75.2188 67.0899 75.2188 57.0625C75.2188 47.0351 67.0899 38.9062 57.0625 38.9062C47.0351 38.9062 38.9062 47.0351 38.9062 57.0625C38.9062 67.0899 47.0351 75.2188 57.0625 75.2188Z" fill="#549BFF"/>
</svg>
