<svg width="65" height="65" viewBox="0 0 65 65" fill="none" xmlns="http://www.w3.org/2000/svg">
<g clip-path="url(#clip0_1_377)">
<path d="M26.7874 0.927062C25.6194 -0.278993 23.6898 -0.317079 22.4837 0.863585C22.0775 1.25714 21.7855 1.75226 21.6458 2.29816L19.64 10.2327L11.7689 8.01105C10.1566 7.55401 8.46808 8.50616 8.01105 10.1185C7.8587 10.6517 7.8587 11.223 8.01105 11.7689L10.2327 19.64L2.29816 21.6585C1.23175 21.9378 0.393859 22.763 0.101867 23.8294C-0.190126 24.8958 0.127257 26.0257 0.927062 26.7874L6.7923 32.5003L0.927062 38.2132C-0.278993 39.3812 -0.317079 41.3109 0.863585 42.5169C1.25714 42.9232 1.75226 43.2151 2.29816 43.3548L10.2327 45.3607L8.01105 53.2318C7.55401 54.8568 8.49347 56.5325 10.1185 56.9896C10.6517 57.1419 11.223 57.1419 11.7689 56.9896L19.64 54.7679L21.6458 62.7025C22.0648 64.3401 23.7278 65.3304 25.3655 64.9114C25.9114 64.7718 26.4066 64.4925 26.7874 64.0862L32.5003 58.221L38.2132 64.0862C38.9876 64.8734 40.1175 65.1907 41.1839 64.8987C42.2503 64.6068 43.0755 63.7689 43.3548 62.7025L45.3607 54.7679L53.2318 56.9896C54.8568 57.4466 56.5325 56.5071 56.9896 54.8821C57.1419 54.3489 57.1419 53.7776 56.9896 53.2318L54.7679 45.3607L62.7025 43.3548C64.3401 42.9359 65.3304 41.2728 64.9114 39.6351C64.7718 39.0892 64.4925 38.5941 64.0862 38.2132L58.221 32.5003L64.0862 26.7874C64.8734 26.013 65.1907 24.8831 64.8987 23.8167C64.6068 22.7503 63.7689 21.9251 62.7025 21.6458L54.7679 19.64L56.9896 11.7689C57.4466 10.1439 56.5071 8.46808 54.8821 8.01105C54.3489 7.8587 53.7776 7.8587 53.2318 8.01105L45.3607 10.2327L43.3421 2.29816C43.0628 1.23175 42.2376 0.393859 41.1712 0.101867C40.1048 -0.190126 38.9749 0.127257 38.2132 0.927062L32.5003 6.7923L26.7874 0.927062Z" fill="url(#paint0_linear_1_377)"/>
</g>
<defs>
<linearGradient id="paint0_linear_1_377" x1="32.5025" y1="-0.45038" x2="32.5025" y2="63.8628" gradientUnits="userSpaceOnUse">
<stop stop-color="#43BCFF"/>
<stop offset="1" stop-color="#0149ED"/>
</linearGradient>
<clipPath id="clip0_1_377">
<rect width="65" height="65" fill="white"/>
</clipPath>
</defs>
</svg>
