<svg width="80" height="80" viewBox="0 0 80 80" fill="none" xmlns="http://www.w3.org/2000/svg">
<g clip-path="url(#clip0_1_398)">
<path d="M58.5999 39.9325L68.8399 14.3425C69.2099 13.4125 68.9949 12.3575 68.2899 11.6475C67.5849 10.9375 66.5249 10.7225 65.5949 11.0925L39.9999 21.3275L14.4099 11.0925C13.4899 10.7225 12.4249 10.9425 11.7149 11.6475C11.0049 12.3525 10.7899 13.4175 11.1599 14.3425L21.3949 39.9325L11.1599 65.5225C10.7899 66.4525 11.0049 67.5075 11.7149 68.2175C12.4249 68.9325 13.4849 69.1475 14.4099 68.7675L39.9999 58.5325L65.5899 68.7725C65.8899 68.8925 66.2049 68.9525 66.5199 68.9525C67.1699 68.9525 67.8099 68.6975 68.2899 68.2225C68.9999 67.5125 69.2149 66.4525 68.8399 65.5275L58.5999 39.9325Z" fill="#2196F3"/>
<path d="M78.485 37.6374L53.155 26.7824L42.295 1.44738C41.51 -0.392617 38.485 -0.392617 37.7 1.44738L26.845 26.7774L1.515 37.6374C0.595 38.0274 0 38.9324 0 39.9324C0 40.9324 0.595 41.8374 1.515 42.2274L26.845 53.0824L37.7 78.4124C38.095 79.3374 39 79.9324 40 79.9324C41 79.9324 41.905 79.3374 42.295 78.4174L53.15 53.0874L78.48 42.2324C79.405 41.8374 80 40.9324 80 39.9324C80 38.9324 79.405 38.0274 78.485 37.6374Z" fill="#64B5F6"/>
</g>
<defs>
<clipPath id="clip0_1_398">
<rect width="80" height="80" fill="white"/>
</clipPath>
</defs>
</svg>
