<svg width="88" height="88" viewBox="0 0 88 88" fill="none" xmlns="http://www.w3.org/2000/svg">
<g clip-path="url(#clip0_1_366)">
<path d="M77.4544 54.7887L73.4851 52.108L56.6807 63.3457C56.1137 63.7579 55.7016 64.428 55.5984 65.0981C55.4436 65.8198 55.6499 66.5416 56.1137 67.1084L67.7633 81.6448C68.2786 82.2633 69.0005 82.6242 69.7737 82.6242C69.98 82.6242 70.6496 82.4693 70.6496 82.4693C71.5268 82.1601 79.1271 79.3148 79.3336 78.4385L75.2382 65.8713L77.4544 54.7887ZM31.3198 63.3457L14.5154 52.108L10.5461 54.7887L12.7623 65.8715L6.16477 77.6677C6.37113 78.5438 16.4735 82.1602 17.3507 82.4695C17.3507 82.4695 18.0201 82.6243 18.2266 82.6243C19 82.6243 19.7217 82.2635 20.237 81.6449L31.8867 67.1086C32.3504 66.5416 32.5568 65.8199 32.402 65.0983C32.299 64.4278 31.8868 63.7577 31.3198 63.3457ZM81.7849 31.6955L68.8465 25.8191L45.7018 5.97363H42.2988L19.1541 25.8191L6.2158 31.6955C5.70102 32.1593 5.33984 38.0874 5.33984 38.809V38.9635C5.39139 39.7884 5.80428 40.5099 6.47371 40.9738L17.1959 48.0874C17.6596 48.3451 18.1234 48.4997 18.6394 48.4997C19.4636 48.4997 20.2885 48.0874 20.804 47.3655L44.0002 12.5196L67.1965 47.3655C67.7118 48.0872 68.5367 48.4997 69.3611 48.4997C69.8771 48.4997 70.3409 48.3449 70.8046 48.0874L81.5268 40.9738C82.1962 40.5097 82.6091 39.7884 82.6606 38.9635V38.809C82.6606 38.0874 82.2995 32.1593 81.7849 31.6955Z" fill="url(#paint0_linear_1_366)"/>
<path d="M86.75 72.6755L75.238 65.8712L72.2994 80.562C72.0931 81.4383 71.5267 82.16 70.6496 82.4692L86.234 77.3145C87.1627 77.0052 87.8839 76.1807 87.9871 75.1495C88.0904 74.1703 87.5744 73.1909 86.75 72.6755ZM15.7008 80.562L12.7622 65.8712L1.25019 72.6755C0.425954 73.1909 -0.090033 74.1703 0.0130614 75.1495C0.116328 76.1805 0.837301 77.0052 1.76618 77.3145L17.3506 82.4692C16.4736 82.1601 15.9073 81.4383 15.7008 80.562ZM19.1541 25.819L9.72112 16.3859C8.99946 15.6129 7.91714 15.4065 6.93791 15.8189C5.95817 16.2314 5.33961 17.1591 5.33961 18.1902V38.8091C5.33961 38.0875 5.70078 37.3141 6.21556 36.8503L19.1541 25.819ZM82.6606 38.8089V18.1901C82.6606 17.1591 82.042 16.2313 81.0623 15.8187C80.1348 15.4063 79.0009 15.6127 78.2791 16.3857L68.8461 25.8189L81.7844 36.85C82.2994 37.3139 82.6606 38.0873 82.6606 38.8089ZM77.073 52.8435L46.1447 6.45105C45.1883 5.01632 42.8122 5.01632 41.8558 6.45105L10.9275 52.8435C10.1371 54.0265 10.4593 55.6248 11.6373 56.4151L42.5758 77.0389C43.0088 77.3259 43.5021 77.4693 44.0003 77.4693C44.4986 77.4693 44.9919 77.3259 45.4249 77.0389L76.3634 56.4151C77.5411 55.6248 77.8633 54.0265 77.073 52.8435Z" fill="url(#paint1_linear_1_366)"/>
</g>
<defs>
<linearGradient id="paint0_linear_1_366" x1="44.0002" y1="82.6241" x2="44.0002" y2="5.97363" gradientUnits="userSpaceOnUse">
<stop stop-color="#ADDCFF"/>
<stop offset="0.5028" stop-color="#EAF6FF"/>
<stop offset="1" stop-color="#EAF6FF"/>
</linearGradient>
<linearGradient id="paint1_linear_1_366" x1="44.0002" y1="82.4694" x2="44.0002" y2="5.37508" gradientUnits="userSpaceOnUse">
<stop stop-color="#5558FF"/>
<stop offset="1" stop-color="#00C0FF"/>
</linearGradient>
<clipPath id="clip0_1_366">
<rect width="88" height="88" fill="white"/>
</clipPath>
</defs>
</svg>
