<svg width="151" height="63" viewBox="0 0 151 63" fill="none" xmlns="http://www.w3.org/2000/svg">
<g clip-path="url(#clip0_1_25)">
<path d="M19.9185 55.9171H14.1529V45.6352C14.1529 44.7363 14.0602 43.9809 13.8748 43.3691C13.6894 42.7573 13.4299 42.2672 13.0962 41.8989C12.7625 41.5306 12.3639 41.2653 11.9004 41.103C11.437 40.9407 10.9271 40.8595 10.371 40.8595C9.66649 40.8595 9.02999 40.9937 8.46147 41.2622C7.89294 41.5306 7.40784 41.8989 7.00617 42.3671C6.60449 42.8353 6.2986 43.3941 6.08849 44.0433C5.87838 44.6926 5.77333 45.398 5.77333 46.1596V55.9171H0.0448227V36.4958H4.661L5.01324 37.9753C5.40874 37.6882 5.84749 37.4166 6.3295 37.1607C6.81151 36.9047 7.31823 36.6831 7.84968 36.4958C8.38113 36.3085 8.92803 36.1587 9.49037 36.0463C10.0527 35.9339 10.6243 35.8778 11.2052 35.8778C12.7378 35.8778 14.054 36.0994 15.154 36.5426C16.254 36.9859 17.1562 37.6226 17.8607 38.4529C18.5652 39.2832 19.0842 40.2914 19.4179 41.4775C19.7516 42.6637 19.9185 44.0059 19.9185 45.5041V55.9171ZM20.6687 46.2158C20.6687 44.7924 20.9282 43.4534 21.4473 42.1986C21.9664 40.9438 22.6987 39.8482 23.6442 38.9117C24.5897 37.9753 25.7144 37.2356 27.0183 36.6924C28.3222 36.1493 29.7651 35.8778 31.3471 35.8778C32.9414 35.8778 34.3967 36.1493 35.713 36.6924C37.0293 37.2356 38.1601 37.9753 39.1056 38.9117C40.0511 39.8482 40.7865 40.9438 41.3117 42.1986C41.837 43.4534 42.0996 44.7924 42.0996 46.2158L42.0983 46.4083C42.094 46.717 42.079 46.9649 42.0533 47.1522C42.0224 47.377 41.9884 47.6017 41.9513 47.8264H26.3601C26.5208 48.4382 26.7711 48.9876 27.111 49.4745C27.4508 49.9615 27.8463 50.3766 28.2974 50.72C28.7486 51.0633 29.2367 51.3286 29.762 51.5159C30.2873 51.7032 30.828 51.7968 31.3842 51.7968C32.2864 51.7968 33.0712 51.6033 33.7386 51.2163C34.406 50.8292 34.9127 50.336 35.2588 49.7367H41.4508C41.1665 50.5858 40.7339 51.4192 40.153 52.237C39.5722 53.0548 38.8553 53.782 38.0025 54.4188C37.1497 55.0556 36.1641 55.5675 35.0456 55.9545C33.9271 56.3416 32.6943 56.5351 31.3471 56.5351C29.7775 56.5351 28.3376 56.2636 27.0275 55.7204C25.7174 55.1773 24.5928 54.4375 23.6535 53.5011C22.7141 52.5647 21.9819 51.4691 21.4566 50.2143C20.9313 48.9595 20.6687 47.6267 20.6687 46.2158ZM31.3842 40.4662C30.1853 40.4662 29.1719 40.7721 28.3438 41.3839C27.5157 41.9957 26.9163 42.801 26.5455 43.7998H36.0003C35.6419 42.8135 35.0734 42.0113 34.2948 41.3933C33.5161 40.7752 32.5459 40.4662 31.3842 40.4662ZM46.1498 31.1395L50.2654 31.102V36.4958H55.8456V41.4588H50.2654V48.2759C50.2654 48.8752 50.3365 49.3715 50.4786 49.7648C50.6207 50.1581 50.8123 50.4703 51.0533 50.7012C51.2943 50.9322 51.5816 51.0914 51.9153 51.1788C52.249 51.2662 52.6075 51.3099 52.9906 51.3099H56.1978L56.1607 56.0482H52.4344C51.3592 56.0482 50.3426 55.9514 49.3848 55.7579C48.4269 55.5644 47.5896 55.1898 46.8728 54.6342C46.1559 54.0786 45.5905 53.2982 45.1765 52.2931C44.7624 51.2881 44.5554 49.9677 44.5554 48.3321V41.4588H41.4965V37.0389L44.4071 35.9152L46.1498 31.1395ZM57.3374 36.4958H63.1029V55.9171H57.3374V36.4958ZM56.8368 31.2706C56.8368 30.8586 56.9171 30.4653 57.0778 30.0907C57.2385 29.7161 57.4702 29.3884 57.773 29.1075C58.0758 28.8265 58.4373 28.6049 58.8575 28.4426C59.2778 28.2803 59.7474 28.1991 60.2665 28.1991C60.7856 28.1991 61.2552 28.2803 61.6754 28.4426C62.0957 28.6049 62.4572 28.8265 62.76 29.1075C63.0628 29.3884 63.2945 29.7161 63.4552 30.0907C63.6158 30.4653 63.6962 30.8586 63.6962 31.2706C63.6962 31.6951 63.6158 32.0915 63.4552 32.4598C63.2945 32.8282 63.0628 33.1497 62.76 33.4243C62.4572 33.699 62.0926 33.9175 61.6662 34.0798C61.2398 34.2422 60.767 34.3233 60.248 34.3233C59.7412 34.3233 59.2778 34.2422 58.8575 34.0798C58.4373 33.9175 58.0789 33.6959 57.7823 33.415C57.4857 33.1341 57.2539 32.8094 57.0871 32.4411C56.9202 32.0728 56.8368 31.6826 56.8368 31.2706ZM64.8357 46.2158C64.8357 44.7924 65.0767 43.4534 65.5587 42.1986C66.0407 40.9438 66.7267 39.8482 67.6165 38.9117C68.5064 37.9753 69.5878 37.2356 70.8608 36.6924C72.1339 36.1493 73.5613 35.8778 75.1433 35.8778C76.4163 35.8778 77.5595 36.0869 78.573 36.5052C79.5865 36.9234 80.4454 37.4197 81.1499 37.9941L81.3909 36.4958H86.2666V55.9171H81.3909L81.1314 54.4375C80.4145 55.0119 79.5525 55.5051 78.5452 55.9171C77.5379 56.3291 76.404 56.5351 75.1433 56.5351C73.5737 56.5351 72.1524 56.2636 70.8794 55.7204C69.6064 55.1773 68.5219 54.4407 67.6258 53.5105C66.7298 52.5803 66.0407 51.4878 65.5587 50.233C65.0767 48.9782 64.8357 47.6392 64.8357 46.2158ZM70.5642 46.1971C70.5642 47.0086 70.7002 47.7453 70.9721 48.407C71.244 49.0688 71.6117 49.6368 72.0751 50.1113C72.5386 50.5858 73.0824 50.951 73.7066 51.2069C74.3307 51.4629 74.995 51.5908 75.6995 51.5908C76.404 51.5908 77.0683 51.4629 77.6924 51.2069C78.3166 50.951 78.8604 50.5889 79.3238 50.1207C79.7873 49.6525 80.1519 49.0844 80.4176 48.4164C80.6834 47.7484 80.8162 47.0086 80.8162 46.1971C80.8162 45.398 80.6803 44.6707 80.4084 44.0152C80.1365 43.3597 79.7688 42.7979 79.3053 42.3297C78.8418 41.8615 78.298 41.4994 77.6739 41.2434C77.0497 40.9875 76.3854 40.8595 75.6809 40.8595C74.9641 40.8595 74.2936 40.9875 73.6695 41.2434C73.0453 41.4994 72.5046 41.8615 72.0473 42.3297C71.59 42.7979 71.2285 43.3597 70.9628 44.0152C70.6971 44.6707 70.5642 45.398 70.5642 46.1971ZM110.209 46.1971C110.209 47.6204 109.974 48.9595 109.505 50.2143C109.035 51.4691 108.361 52.5647 107.484 53.5011C106.606 54.4375 105.537 55.1773 104.277 55.7204C103.016 56.2636 101.595 56.5351 100.013 56.5351C98.8508 56.5351 97.8158 56.3759 96.9073 56.0575C95.9989 55.7392 95.1987 55.324 94.5066 54.8121V62.5469H88.778V36.4958H93.3942L93.765 38.1439C94.1234 37.8442 94.522 37.5571 94.9608 37.2824C95.3995 37.0077 95.8784 36.7674 96.3975 36.5613C96.9166 36.3553 97.4697 36.1899 98.0567 36.065C98.6438 35.9402 99.2649 35.8778 99.9199 35.8778C101.49 35.8778 102.908 36.1493 104.175 36.6924C105.441 37.2356 106.523 37.9722 107.419 38.9024C108.315 39.8326 109.004 40.925 109.486 42.1798C109.968 43.4347 110.209 44.7737 110.209 46.1971ZM104.462 46.2158C104.462 45.4042 104.329 44.6676 104.063 44.0059C103.798 43.3441 103.433 42.776 102.97 42.3016C102.506 41.8271 101.962 41.4619 101.338 41.206C100.714 40.95 100.05 40.822 99.3452 40.822C98.6284 40.822 97.961 40.95 97.343 41.206C96.725 41.4619 96.1843 41.824 95.7209 42.2922C95.2574 42.7604 94.8928 43.3285 94.6271 43.9965C94.3613 44.6645 94.2285 45.4042 94.2285 46.2158C94.2285 47.0149 94.3644 47.7422 94.6363 48.3977C94.9082 49.0532 95.2759 49.615 95.7394 50.0832C96.2029 50.5514 96.7467 50.9135 97.3708 51.1694C97.995 51.4254 98.6593 51.5534 99.3637 51.5534C100.081 51.5534 100.751 51.4254 101.375 51.1694C101.999 50.9135 102.54 50.5545 102.997 50.0926C103.455 49.6306 103.813 49.0719 104.073 48.4164C104.332 47.7609 104.462 47.0274 104.462 46.2158ZM132.946 46.1971C132.946 47.6204 132.711 48.9595 132.242 50.2143C131.772 51.4691 131.099 52.5647 130.221 53.5011C129.344 54.4375 128.274 55.1773 127.014 55.7204C125.753 56.2636 124.332 56.5351 122.75 56.5351C121.588 56.5351 120.553 56.3759 119.645 56.0575C118.736 55.7392 117.936 55.324 117.244 54.8121V62.5469H111.515V36.4958H116.132L116.502 38.1439C116.861 37.8442 117.259 37.5571 117.698 37.2824C118.137 37.0077 118.616 36.7674 119.135 36.5613C119.654 36.3553 120.207 36.1899 120.794 36.065C121.381 35.9402 122.002 35.8778 122.657 35.8778C124.227 35.8778 125.645 36.1493 126.912 36.6924C128.179 37.2356 129.26 37.9722 130.156 38.9024C131.052 39.8326 131.741 40.925 132.223 42.1798C132.705 43.4347 132.946 44.7737 132.946 46.1971ZM127.199 46.2158C127.199 45.4042 127.066 44.6676 126.801 44.0059C126.535 43.3441 126.17 42.776 125.707 42.3016C125.243 41.8271 124.7 41.4619 124.075 41.206C123.451 40.95 122.787 40.822 122.083 40.822C121.366 40.822 120.698 40.95 120.08 41.206C119.462 41.4619 118.922 41.824 118.458 42.2922C117.995 42.7604 117.63 43.3285 117.364 43.9965C117.099 44.6645 116.966 45.4042 116.966 46.2158C116.966 47.0149 117.102 47.7422 117.374 48.3977C117.646 49.0532 118.013 49.615 118.477 50.0832C118.94 50.5514 119.484 50.9135 120.108 51.1694C120.732 51.4254 121.397 51.5534 122.101 51.5534C122.818 51.5534 123.488 51.4254 124.113 51.1694C124.737 50.9135 125.277 50.5545 125.735 50.0926C126.192 49.6306 126.55 49.0719 126.81 48.4164C127.069 47.7609 127.199 47.0274 127.199 46.2158ZM138.331 49.8491C138.381 50.4359 138.68 50.9104 139.23 51.2725C139.78 51.6345 140.476 51.8156 141.316 51.8156C142.404 51.8156 143.188 51.672 143.67 51.3848C144.152 51.0977 144.393 50.6919 144.393 50.1675C144.393 49.8553 144.282 49.6025 144.06 49.409C143.837 49.2155 143.51 49.0438 143.077 48.894C142.678 48.7557 142.194 48.628 141.627 48.511L141.064 48.3974C140.535 48.2888 139.946 48.1609 139.295 48.0137C138.924 47.9388 138.517 47.8483 138.072 47.7422C137.627 47.636 137.185 47.4925 136.746 47.3114C136.307 47.1304 135.884 46.9056 135.476 46.6372C135.068 46.3687 134.707 46.0348 134.392 45.6352C134.077 45.2357 133.826 44.7581 133.641 44.2025C133.455 43.6469 133.363 42.9945 133.363 42.2454C133.363 41.259 133.539 40.3694 133.891 39.5766C134.243 38.7838 134.778 38.1158 135.495 37.5727C136.212 37.0295 137.114 36.6113 138.201 36.3179C139.289 36.0245 140.568 35.8778 142.039 35.8778C143.238 35.8778 144.316 36.0338 145.274 36.346C146.232 36.6581 147.044 37.1013 147.712 37.6757C148.379 38.25 148.889 38.9336 149.241 39.7264C149.594 40.5193 149.77 41.3901 149.77 42.339L144.023 42.3203C143.986 41.8459 143.763 41.437 143.355 41.0936C142.947 40.7502 142.373 40.5786 141.631 40.5786C140.754 40.5786 140.105 40.7409 139.685 41.0655C139.264 41.3901 139.06 41.7647 139.073 42.1892C139.073 42.4389 139.144 42.6481 139.286 42.8166C139.428 42.9852 139.651 43.1287 139.953 43.2474C140.256 43.366 140.642 43.469 141.112 43.5564L141.335 43.5967C141.757 43.6707 142.245 43.7446 142.799 43.8186C143.813 43.9934 144.777 44.2025 145.691 44.446C146.606 44.6894 147.412 45.0266 148.11 45.4573C148.809 45.8881 149.362 46.4499 149.77 47.1429C150.178 47.8358 150.381 48.7129 150.381 49.7742C150.381 50.9354 150.153 51.9436 149.696 52.7988C149.238 53.6541 148.599 54.3626 147.777 54.9245C146.955 55.4863 145.975 55.9015 144.838 56.1699C143.701 56.4384 142.453 56.5726 141.094 56.5726C139.61 56.5726 138.34 56.3728 137.284 55.9733C136.227 55.5737 135.359 55.0525 134.679 54.4095C133.999 53.7664 133.499 53.0423 133.177 52.237C132.856 51.4316 132.695 50.6295 132.695 49.8304L138.331 49.8491Z" fill="#1A1A1A"/>
</g>
<g clip-path="url(#clip1_1_25)">
<mask id="mask0_1_25" style="mask-type:alpha" maskUnits="userSpaceOnUse" x="101" y="0" width="32" height="28">
<path d="M105.238 27.8463C104.546 27.83 103.869 27.6531 103.263 27.3304C101.177 26.2195 100.417 23.6834 101.565 21.6658L108.82 8.92267C111.723 3.82385 117.264 0.656609 123.282 0.656609L132.694 0.656609C132.729 0.656609 132.762 0.66483 132.792 0.680558C132.892 0.732765 132.929 0.853284 132.875 0.949735L122.302 19.8372C119.45 24.9313 113.886 28.0492 107.898 27.9086L105.238 27.8463Z" fill="white"/>
</mask>
<g mask="url(#mask0_1_25)">
<path fill-rule="evenodd" clip-rule="evenodd" d="M-9.4943 76.0567L166.057 76.0567L166.057 -19.6596L-9.4943 -19.6596L-9.4943 76.0567Z" fill="url(#paint0_linear_1_25)"/>
</g>
<mask id="mask1_1_25" style="mask-type:alpha" maskUnits="userSpaceOnUse" x="79" y="0" width="36" height="28">
<path d="M79.3056 0L88.7175 0C94.7409 0 100.292 3.1534 103.226 8.24127L114.019 26.9586C112.581 27.3471 111.482 27.5852 110.721 27.6729C109.304 27.8364 108.205 27.8616 106.457 27.8616C99.1257 27.8616 92.3835 23.9769 88.8928 17.7415L79.1251 0.293126C79.0711 0.196695 79.1081 0.0761759 79.2079 0.0239489C79.2379 0.00824114 79.2715 0 79.3056 0Z" fill="white"/>
</mask>
<g mask="url(#mask1_1_25)">
<path fill-rule="evenodd" clip-rule="evenodd" d="M-8.87833 75.8582L166.673 75.8582L166.673 -19.8582L-8.87833 -19.8582L-8.87833 75.8582Z" fill="url(#paint1_linear_1_25)"/>
</g>
</g>
<defs>
<linearGradient id="paint0_linear_1_25" x1="116.965" y1="27.9132" x2="116.965" y2="0.656608" gradientUnits="userSpaceOnUse">
<stop stop-color="#FF0300"/>
<stop offset="1" stop-color="#AA0108"/>
</linearGradient>
<linearGradient id="paint1_linear_1_25" x1="96.5597" y1="1.28115e-06" x2="96.5597" y2="27.8616" gradientUnits="userSpaceOnUse">
<stop stop-color="#FF0300"/>
<stop offset="1" stop-color="#AA0108"/>
</linearGradient>
<clipPath id="clip0_1_25">
<rect width="150.429" height="34.7143" fill="white" transform="translate(0 28)"/>
</clipPath>
<clipPath id="clip1_1_25">
<rect width="54" height="28" fill="white" transform="translate(79)"/>
</clipPath>
</defs>
</svg>
