<svg width="83" height="75" viewBox="0 0 83 75" fill="none" xmlns="http://www.w3.org/2000/svg">
<path d="M83 0V12.5H80.8535C75.7653 12.5 71.7107 13.3814 68.6897 15.1442C65.6686 16.9071 63.4425 19.7115 62.0115 23.5577C60.7395 27.2436 60.1034 31.9711 60.1034 37.7404V55.7692L54.3793 44.9519C55.4923 44.3109 56.9234 43.8301 58.6724 43.5096C60.5805 43.1891 62.409 43.0288 64.158 43.0288C68.6102 43.0288 72.2672 44.4712 75.1293 47.3558C78.1504 50.0801 79.6609 53.9263 79.6609 58.8942C79.6609 63.5417 78.2299 67.3878 75.3678 70.4327C72.6648 73.4776 68.9282 75 64.158 75C61.137 75 58.2749 74.2788 55.5718 72.8365C52.8688 71.3942 50.6427 68.8301 48.8937 65.1442C47.1446 61.4583 46.2701 56.1699 46.2701 49.2788V44.2308C46.2701 32.5321 47.7011 23.4776 50.5632 17.0673C53.4253 10.6571 57.4799 6.25 62.727 3.84614C67.9741 1.28205 74.1753 0 81.3305 0H83ZM36.7299 0V12.5H34.5833C29.4952 12.5 25.4406 13.3814 22.4195 15.1442C19.3985 16.9071 17.1724 19.7115 15.7414 23.5577C14.4693 27.2436 13.8333 31.9711 13.8333 37.7404V55.7692L8.1092 44.9519C9.22222 44.3109 10.6533 43.8301 12.4023 43.5096C14.3103 43.1891 16.1389 43.0288 17.8879 43.0288C22.34 43.0288 25.9971 44.4712 28.8592 47.3558C31.8803 50.0801 33.3908 53.9263 33.3908 58.8942C33.3908 63.5417 31.9598 67.3878 29.0977 70.4327C26.3946 73.4776 22.658 75 17.8879 75C14.8669 75 12.0048 74.2788 9.30172 72.8365C6.59866 71.3942 4.37261 68.8301 2.62356 65.1442C0.874521 61.4583 0 56.1699 0 49.2788V44.2308C0 32.5321 1.43103 23.4776 4.2931 17.0673C7.15517 10.6571 11.2098 6.25 16.4569 3.84614C21.704 1.28205 27.9052 0 35.0603 0H36.7299Z" fill="#0A0A0A" fill-opacity="0.2"/>
</svg>
