<svg width="41" height="41" viewBox="0 0 41 41" fill="none" xmlns="http://www.w3.org/2000/svg">
<rect width="41" height="41" rx="20.5" transform="matrix(-1 0 0 1 41 0)" fill="#1F1F1F"/>
<path d="M29 30L24.657 25.657M24.657 25.657C25.3998 24.9141 25.9891 24.0322 26.3912 23.0615C26.7932 22.0909 27.0002 21.0506 27.0002 20C27.0002 18.9494 26.7932 17.9091 26.3912 16.9385C25.9891 15.9678 25.3998 15.0859 24.657 14.343C23.9141 13.6001 23.0321 13.0108 22.0615 12.6088C21.0909 12.2067 20.0506 11.9998 19 11.9998C17.9494 11.9998 16.909 12.2067 15.9384 12.6088C14.9678 13.0108 14.0858 13.6001 13.343 14.343C11.8426 15.8433 10.9998 17.8782 10.9998 20C10.9998 22.1218 11.8426 24.1567 13.343 25.657C14.8433 27.1573 16.8782 28.0002 19 28.0002C21.1217 28.0002 23.1566 27.1573 24.657 25.657Z" stroke="white" stroke-width="2" stroke-linecap="round" stroke-linejoin="round"/>
</svg>
